<?xml version="1.0" ?><svg id="Layer_1" style="enable-background:new 0 0 512 512;" version="1.1" viewBox="0 0 512 512" xml:space="preserve" xmlns="http://www.w3.org/2000/svg" xmlns:xlink="http://www.w3.org/1999/xlink"><style type="text/css">
	.st0{fill:#2C2A7C;}
	.st1{fill:#FFFFFF;}
	.st2{fill:#E91E26;}
</style><g id="XMLID_1_"><rect class="st0" height="298.7" id="XMLID_16_" width="512" y="106.7"/><polygon class="st1" id="XMLID_15_" points="134.7,289.6 142.5,313.9 166.3,304.9 152.2,326.1 174.1,339 148.7,341.3 152.2,366.5    134.7,348 117.2,366.5 120.7,341.3 95.3,339 117.2,326.1 103.1,304.9 126.9,313.9  "/><polygon class="st1" id="XMLID_14_" points="404.1,333.3 407.8,344.8 419.1,340.5 412.4,350.6 422.9,356.8 410.8,357.8    412.4,369.8 404.1,361 395.7,369.8 397.4,357.8 385.3,356.8 395.8,350.6 389,340.5 400.4,344.8  "/><polygon class="st1" id="XMLID_13_" points="336.7,226.6 340.5,238.2 351.8,233.9 345.1,244 355.5,250.1 343.4,251.2 345.1,263.2    336.7,254.4 328.4,263.2 330.1,251.2 318,250.1 328.4,244 321.7,233.9 333,238.2  "/><polygon class="st1" id="XMLID_12_" points="404.1,153.7 407.8,165.2 419.1,160.9 412.4,171 422.9,177.2 410.8,178.3 412.4,190.3    404.1,181.5 395.7,190.3 397.4,178.3 385.3,177.2 395.8,171 389,160.9 400.4,165.2  "/><polygon class="st1" id="XMLID_11_" points="464,208.7 467.7,220.2 479,215.9 472.3,226 482.7,232.2 470.6,233.3 472.3,245.3    464,236.5 455.6,245.3 457.3,233.3 445.2,232.2 455.6,226 448.9,215.9 460.2,220.2  "/><polygon class="st1" id="XMLID_10_" points="431,262.7 434,269.9 441.7,270.5 435.8,275.5 437.6,283 431,278.9 424.4,283    426.3,275.5 420.4,270.5 428.1,269.9  "/><polygon class="st1" id="XMLID_9_" points="112.2,106.7 112.2,151.6 0,151.6 0,196.5 112.2,196.5 112.2,241.4 157.1,241.4    157.1,196.5 269.4,196.5 269.4,151.6 157.1,151.6 157.1,106.7  "/><polygon class="st1" id="XMLID_8_" points="0,106.7 0,121.7 239.3,241.4 269.4,241.4 269.4,226.3 30.1,106.7  "/><polygon class="st1" id="XMLID_7_" points="239.3,106.7 0,226.3 0,241.4 30.1,241.4 269.4,121.7 269.4,106.7  "/><polygon class="st2" id="XMLID_6_" points="121.2,106.7 121.2,160.5 0,160.5 0,187.5 121.2,187.5 121.2,241.4 148.2,241.4    148.2,187.5 269.4,187.5 269.4,160.5 148.2,160.5 148.2,106.7  "/><path class="st2" d="M0,106.7v10l69.7,34.8h20.1L0,106.7z M249.3,106.7l-89.8,44.9h20.1l89.8-44.9H249.3z"/><path class="st2" d="M89.8,196.5L0,241.4h20.1l89.8-44.9H89.8z M179.6,196.5l89.8,44.9v-10l-69.7-34.9H179.6z"/></g></svg>