<?xml version="1.0" ?><!DOCTYPE svg  PUBLIC '-//W3C//DTD SVG 1.1//EN'  'http://www.w3.org/Graphics/SVG/1.1/DTD/svg11.dtd'><svg enable-background="new 0 0 100 100" height="100px" id="kangaroo" version="1.1" viewBox="0 0 512 512" width="100px" xml:space="preserve" xmlns="http://www.w3.org/2000/svg" xmlns:xlink="http://www.w3.org/1999/xlink"><g><path d="M53.18,90.361l3.761,33.075c0.24,6.144,2.293,12.703,5.714,18.402v40.183c0,5.211-2.351,10.148-6.411,13.414   c-8.072,6.492-12.702,16.158-12.702,26.516v62.711l7.82,30.001c1.638,6.285,6.763,11.227,13.191,12.156   c6.667,0.963,13.048-2.166,16.371-8.044c2.018-3.57,2.445-7.826,1.499-11.816l-6.372-26.873v-30.011l8.13-11.723   c5.087,10.022,12.013,22.061,21.045,34.614l-6.253,7.64c-7.384,9.02-10.787,20.752-9.396,32.306   c0.848,7.047,6.145,12.942,13.173,13.926c8.722,1.22,16.484-4.965,17.501-13.421l0.959-7.973l5.816-6.331   c18.51,19.149,39.141,33.575,61.681,43.159c6.038,24.297,20.826,38.316,26.278,42.796l9.92,39.147   c1.018,4.017,0.299,7.838-2.025,10.76c-2.308,2.902-5.838,4.462-9.936,4.367l-0.072-0.002l-45.183,0.044   c-7.336-0.138-14.228,2.916-19.128,8.534c-4.02,4.609-6.053,10.624-6.053,16.739v6.014h30.712c-1.75,3.43-2.683,7.248-2.683,11.22   v6.5h87.983c17.219,0,31.178-13.959,31.178-31.178v-74.636c0-7.51,5.871-13.156,13.598-13.598l0.557-0.066   c0.646-0.077,1.292-0.191,1.924-0.351c42.239-10.636,69.473-45.807,69.473-89.867c0-13.57-2.915-26.472-8.148-38.114   c4.972,6.96,8.899,15.027,11.209,24.401l28.063,119.691c7.303,31.146,22.692,56.579,43.336,71.613l2.905,2.116   c-12.564-1.639-24.656-7.923-35.305-18.418c-12.933-12.747-22.797-30.72-28.538-52.021l-12.023-43.393   c-0.958-3.458-4.538-5.484-7.996-4.525l-0.006,0.001c-3.458,0.958-5.484,4.538-4.526,7.996l12.012,43.348   c6.329,23.483,17.379,43.488,31.953,57.854c14.995,14.778,32.652,22.591,51.064,22.591h33.89l-35.776-26.057   c-17.864-13.011-31.836-36.364-38.332-64.072L390.95,261.944c-10.11-41.037-45.421-60.401-73.263-69.421l-0.001,0.004   c-11.009-4.58-23.073-7.115-35.72-7.115l-12.881,0.884l-51.679,8.613c-1.229,0.205-2.474,0.277-3.714,0.399   c-3.415,0.334-5.972,3.272-5.843,6.7v0.005c0.141,3.749,3.418,6.601,7.151,6.229c2.458-0.245,4.912-0.571,7.344-0.977l48.267-8.045   l11.577-0.808c44.169,0.118,80.062,36.087,80.062,80.283c0,38.524-22.891,68.08-59.793,77.298   c-14.279,0.445-25.758,12.199-25.758,26.584v74.636c0,10.039-8.139,18.178-18.178,18.178h-73.024   c0.45-0.674,0.973-1.306,1.566-1.886c2.274-2.227,5.29-3.43,8.458-3.349l42.05,0.001c15.753,0,28.431-12.765,27.921-29.016   c-0.063-2.028-0.404-4.039-0.904-6.006l-18.652-73.388c2.067,0.552,4.164,0.979,6.282,1.276c3.888,0.548,7.348-2.522,7.348-6.448   v-0.001c0-3.235-2.382-5.975-5.585-6.425c-2.41-0.338-4.779-0.896-7.084-1.671c-2.49-0.841-4.908-1.935-7.183-3.249   c-12.25-7.086-19.861-20.265-19.861-34.394c0-1.83,0.123-3.649,0.368-5.421c2.407-17.686,16.479-31.438,33.778-33.899   c3.196-0.454,5.566-3.193,5.566-6.421v-0.009c0-3.922-3.456-6.997-7.34-6.448c-22.984,3.25-41.688,21.52-44.884,45.011   c-0.325,2.345-0.489,4.764-0.489,7.188c0,9.451,2.567,18.58,7.192,26.517c-29.169-8.031-55.392-24.062-78.208-47.833l5.348-5.821   c16.72-18.2,24.22-43.035,20.368-67.447l-0.138-0.877c-0.56-3.545-3.886-5.965-7.431-5.405l-0.005,0.001   c-3.544,0.56-5.964,3.886-5.405,7.431l0.138,0.876c3.252,20.618-2.981,41.259-17.103,56.629l-22.808,24.826l-1.449,12.051   c-0.104,0.859-0.611,1.657-1.408,1.997c-1.576,0.674-3.181-0.362-3.391-1.871c-1.147-8.23,1.213-16.639,6.478-23.069l15.87-19.386   c7.019-8.573,9.598-19.948,6.963-30.71l-6.353-25.954l-0.565-2.515l-2.224-1.401c-0.499-0.33-11.363-7.735-17.067-29.018   c-0.881-3.287-4.182-5.316-7.521-4.657c-3.698,0.729-5.997,4.448-5.014,8.088c5.572,20.638,15.742,31.021,20.309,34.819   l5.808,23.729c1.663,6.793,0.035,13.972-4.395,19.384l-1.076,1.313c-14.387-20.644-22.858-39.721-26.507-48.885   c-1.269-3.188-4.795-4.831-8.055-3.763l-0.025,0.008c-3.559,1.166-5.396,5.084-4.019,8.566c0.708,1.789,1.578,3.908,2.619,6.309   l-14.729,21.24v35.598l6.804,28.695c0.292,1.229-0.229,2.126-0.565,2.551c-0.358,0.453-1.188,1.232-2.604,1.13   c-1.179-0.086-2.379-1.198-2.677-2.344l-7.466-28.643v-61.104c0-6.43,3.042-12.396,8.02-16.465   c7.053-5.767,11.093-14.284,11.093-23.406v-27.551c3.158,1.579,6.491,2.422,9.853,2.422h7.33c8.445,0,15.877-5.064,21.047-12.213   c8.604,23.76,24.746,44.259,43.083,53.312c8.124,4.01,16.757,6.934,25.744,8.723c3.687,0.733,7.232-1.796,7.727-5.522l0-0.005   c0.451-3.39-1.806-6.55-5.16-7.217c-7.883-1.567-15.447-4.126-22.557-7.636c-19.474-9.613-36.721-36.309-41.242-63.693   l3.485-31.873c7.334-5.446,18.126-14.442,22.696-21.205c11.706-17.313,9.493-37.32,9.393-38.163l-0.702-5.926l-5.964,0.194   c-1.175,0.038-28.914,1.146-41.117,19.194c-0.952,1.409-4.4,6.588-7.313,11.866c-1.391-0.219-2.808-0.333-4.241-0.333H80.442   c-1.753,0-3.481,0.172-5.167,0.498c-3.075-5.918-7.326-12.306-8.401-13.896C54.67,24.948,26.931,23.842,25.756,23.803l-5.964-0.194   l-0.703,5.926c-0.1,0.844-2.313,20.852,9.393,38.162C33.491,75.109,45.967,85.198,53.18,90.361z M229.258,353.951   c0.51,0.359,1.027,0.709,1.551,1.051l21.234,83.548c0.658,2.586,0.614,5.287-0.148,7.916c-1.865,6.438-8.011,10.692-14.713,10.692   h-41.459l-38.275,0.034c0,0,0.914-0.938,1.606-1.465c2.529-1.925,5.252-3.416,8.438-3.344l0.072,0.001l45.183-0.044   c8.122,0.166,15.501-3.229,20.309-9.273c4.838-6.083,6.46-14.118,4.452-22.045l-11.063-43.659l-1.985-1.387   c-0.153-0.106-12.968-9.245-20.319-27.984C212.289,350.574,220.667,352.557,229.258,353.951z M120.042,52.143   c5.538-8.19,16.9-11.431,24.161-12.694c-0.353,5.878-1.883,14.807-7.311,22.834c-2.292,3.392-7.718,8.444-13.116,12.912   c-1.39-3.905-3.587-7.501-6.488-10.475c-1.032-1.059-2.133-2.019-3.289-2.886C115.805,58.667,118.009,55.15,120.042,52.143z    M92.838,143.893h-7.33c-1.203,0-2.436-0.295-3.664-0.849c1.323-2.663,4.065-4.503,7.236-4.503c3.207,0,5.975,1.882,7.281,4.595   C95.214,143.621,94.033,143.893,92.838,143.893z M70.151,73.824c2.772-2.855,6.427-4.429,10.291-4.429h17.275   c3.85,0,7.495,1.563,10.264,4.401c2.604,2.67,4.15,6.127,4.455,9.881c-0.013,0.008-0.027,0.019-0.041,0.026l0.044,0.071   c0.036,0.48,0.059,0.966,0.054,1.456l-4.035,36.896l-0.037,0.545c-0.086,3.492-1.17,7.333-2.909,10.777   c-2.69-3.35-6.378-5.854-10.612-7.073v-13.235c0-3.589-2.909-6.497-6.497-6.497h-0.006c-3.588,0-6.497,2.908-6.497,6.497v13.685   c-3.596,1.309-6.747,3.548-9.129,6.454c-1.716-3.415-2.748-7.152-2.848-10.52l-4.259-37.446   C65.6,80.95,67.188,76.878,70.151,73.824z M56.104,50.277c2.566,3.796,5.406,8.405,7.369,12.095   c-0.922,0.738-1.81,1.533-2.649,2.397c-2.836,2.922-4.993,6.437-6.378,10.252c-6.025-4.83-12.605-10.776-15.193-14.605   c-5.379-7.954-6.916-16.922-7.283-22.828C39.235,38.856,50.574,42.099,56.104,50.277z"/><path d="M283.195,271.123h13.601c3.59,0,6.5-2.91,6.5-6.5s-2.91-6.5-6.5-6.5h-13.601c-3.59,0-6.5,2.91-6.5,6.5   S279.605,271.123,283.195,271.123z"/></g></svg>